<svg width="15" height="15" viewBox="0 0 15 15" fill="none" xmlns="http://www.w3.org/2000/svg">
<path d="M9.85188 13.4815H4.96299M0.888916 8.42978V3.86681C0.888916 2.95414 0.888916 2.49746 1.06654 2.14886C1.22277 1.84222 1.47189 1.5931 1.77853 1.43687C2.12713 1.25925 2.5838 1.25925 3.49648 1.25925H11.3187C12.2314 1.25925 12.6871 1.25925 13.0357 1.43687C13.3423 1.5931 13.5923 1.84222 13.7485 2.14886C13.926 2.49712 13.926 2.95324 13.926 3.86414V8.43213C13.926 9.34303 13.926 9.7985 13.7485 10.1468C13.5923 10.4534 13.3423 10.7033 13.0357 10.8596C12.6874 11.037 12.232 11.037 11.3211 11.037H3.49381C2.58291 11.037 2.12678 11.037 1.77853 10.8596C1.47189 10.7033 1.22277 10.4534 1.06654 10.1468C0.888916 9.79816 0.888916 9.34245 0.888916 8.42978Z" stroke="white" stroke-width="1.62963" stroke-linecap="round" stroke-linejoin="round"/>
</svg>
