<svg width="11" height="17" viewBox="0 0 11 17" fill="none" xmlns="http://www.w3.org/2000/svg">
<path d="M1.51849 3.49648V12.9483C1.51849 13.861 1.51849 14.3171 1.69611 14.6657C1.85235 14.9723 2.10147 15.2219 2.40811 15.3781C2.75636 15.5556 3.21249 15.5556 4.12338 15.5556H7.06175C7.97265 15.5556 8.42811 15.5556 8.77637 15.3781C9.08301 15.2219 9.33296 14.9723 9.4892 14.6657C9.66664 14.3175 9.66664 13.862 9.66664 12.9511V3.49381C9.66664 2.58291 9.66664 2.12678 9.4892 1.77853C9.33296 1.47189 9.08301 1.22277 8.77637 1.06654C8.42777 0.888916 7.97207 0.888916 7.05939 0.888916H4.12606C3.21338 0.888916 2.7567 0.888916 2.40811 1.06654C2.10147 1.22277 1.85235 1.47189 1.69611 1.77853C1.51849 2.12713 1.51849 2.5838 1.51849 3.49648Z" stroke="white" stroke-width="1.62963" stroke-linecap="round" stroke-linejoin="round"/>
</svg>
